<?xml version="1.0" encoding="UTF-8"?>
<svg width="31px" height="69px" viewBox="0 0 31 69" version="1.1" xmlns="http://www.w3.org/2000/svg" xmlns:xlink="http://www.w3.org/1999/xlink">
    <g id="Page-1" stroke="none" stroke-width="1" fill="none" fill-rule="evenodd">
        <path d="M27.3,68.1 C24.6760044,64.3214463 23.3640066,62.4321694 23.3640066,62.4321694 C23.3640066,62.4321694 23.0093377,61.9214463 22.3,60.9 C21.1,66.5 18.5,68.7 13.6,68.7 C2.5,68.7 0,57.2 0,35.9 C0,11.6 3.7,0 16.6,0 C26.7,0 30,6.3 30,16.6 C30,18.4 29.9,20.4 29.7,22.4 L19.6,22.4 C19.9,18.2 20.1,14.9 20.1,12.3 C20.1,5.2 18.8,3.6 16.1,3.6 C12.4,3.6 11.5,7.5 11.5,36.7 C11.5,60.6 11.7,65.1 15.6,65.1 C17.4,65.1 18.9,62.5 19.4,53 L19.4,38.6 L15.2,38.6 L15.2,35 L28.8,35 L30.3,36.6 L30.3,68.1 L27.3,68.1 Z" id="g-narrow" fill="#000000" fill-rule="nonzero"></path>
    </g>
</svg>
