<?xml version="1.0" encoding="UTF-8"?>
<svg width="30px" height="68px" viewBox="0 0 30 68" version="1.1" xmlns="http://www.w3.org/2000/svg" xmlns:xlink="http://www.w3.org/1999/xlink">
    <g id="Page-1" stroke="none" stroke-width="1" fill="none" fill-rule="evenodd">
        <path d="M28.8,17.4 C28.8,29.4 22.1,33 14.2,34.4 C20.3,34.8 27.5,36.8 28.1,46.6 L28.1,52.6 C28.1,57.6 28.3,62.5 29.5,67.5 L18.6,67.5 C17.4,62.9 17.2,59 17.2,54.8 L17.2,49.3 C17.2,38.2977672 14.087962,36.4485875 11.2790657,36.3091201 C11.1519846,36.3028103 11.0255239,36.3 10.9,36.3 L10.9,67.5 L0,67.5 L0,0 L13,0 C21.2,0 28.8,2.9 28.8,17.4 Z M17.4,17.8 C17.4,8.9 17.2,3 11.6,3 L11,3 L11,32.1 L11.2,32.1 C16.5,32.1 17.4,27.2 17.4,17.8 Z" id="r-narrow" fill="#000000" fill-rule="nonzero"></path>
    </g>
</svg>
