<?xml version="1.0" encoding="utf-8"?>
<!-- Generator: Adobe Illustrator 24.0.3, SVG Export Plug-In . SVG Version: 6.00 Build 0)  -->
<svg version="1.1" id="r-box" xmlns="http://www.w3.org/2000/svg" xmlns:xlink="http://www.w3.org/1999/xlink" x="0px" y="0px"
	 viewBox="0 0 362.5 68" style="enable-background:new 0 0 362.5 68;" xml:space="preserve">
<path id="r-wide" d="M197.2,18.4c0,12.1-10,16.3-18.8,17.7c7.7,1.7,15.9,5.6,15.9,14.1v2.4c0,5,0.4,9.9,2.4,14.9h-11.9
	c-2-4.7-2.4-8.5-2.4-12.7v-5.5c0-11.2-11.2-12.5-16.3-12.7h-34.8v30.9h-11.9V0h53C180.1,0,197.2,2.7,197.2,18.4z M184.8,17.7
	C184.8,7.9,178.9,3,171,3h-39.6v29.4h39.5C178.5,32.4,184.8,30.3,184.8,17.7z"/>
<path id="r-wide_1_" d="M28.8,16.7C28.9,29,22.5,33,14.3,34.4c8.5,0.9,14.4,3.8,13.8,15.8v2.4c0,5,0.1,9.3,1.4,14.9H18.6
	c-1.2-4-1.4-8.5-1.4-12.7l0-5.1c-0.6-10.2-1.3-12.2-5.5-13.4l-0.8,0v31.2H0V0h13.6C21.8,0,28.7,3.9,28.8,16.7z M17.4,17.7
	c0-8.7,0-15-6.3-14.7H11v29.1l0,0C16.3,32.1,17.4,27.2,17.4,17.7z"/>
</svg>
