<svg id="s-box" width="30px" height="69px" viewBox="0 0 30 69" version="1.1" xmlns="http://www.w3.org/2000/svg">
  <path id="s-path" d="M29.2,50.2 C29.2,59.8 25,68.7 13.9,68.7 C4.4,68.7 -2.77555756e-17,62 0.2,47.3 L10.3,47.3 C9,61 11.6,65.1 14.6,65.1 C17.9,65.1 18.4,59.7 18.4,54.6 C18.4,47.7 17.5,43.4 12.4,38.6 C8.2,34.6 0.4,30.2 0.4,17.7 C0.4,8.9 4.2,0 14.5,0 C23.8,0 27.4,7 27.4,21.7 L17.3,21.7 C19,10 16.9,3.6 13.5,3.6 C11.9,3.6 10,4.9 10,12.5 C10,24 14.4,25.5 20.2,30.7 C24.4,34.5 29.2,40 29.2,50.2 Z" fill-rule="nonzero"></path>
</svg>
