<?xml version="1.0" encoding="UTF-8"?>
<svg width="82px" height="69px" viewBox="0 0 82 69" version="1.1" xmlns="http://www.w3.org/2000/svg" xmlns:xlink="http://www.w3.org/1999/xlink">
    <g id="Page-1" stroke="none" stroke-width="1" fill="none" fill-rule="evenodd">
        <path d="M71.2,59.1 L70.5,58.1 C65.4,64.8 53.3,68.7 40.6,68.7 C20.1,68.7 0,58.6 0,36.3 C0,14.2 19.6,0 45.4,0 C63.7177043,0 79.1572986,7.15415926 80.6825529,18.7034203 C80.8392854,19.8902024 80.8490927,21.1233935 80.7,22.4 L69.6,22.4 C69.6811581,21.4198597 69.6987883,20.4888269 69.6575865,19.6045901 C69.0388127,6.32502023 55.1508482,3.6 43.9,3.6 C30.5,3.6 12.5,7.5 12.5,35.2 C12.5,60.6 27.5,65.1 41,65.1 C53.9,65.1 69.3,61 69.4,47.2 L69.4,38.6 L39.3,38.6 L39.3,35 L79.8,35 L81.3,36.6 L81.3,68.1 L78.3,68.1 L71.2,59.1 Z" id="g-wide" fill="#000000" fill-rule="nonzero"></path>
    </g>
</svg>
