<svg width="78px" height="68px" viewBox="0 0 78 68" version="1.1" xmlns="http://www.w3.org/2000/svg" xmlns:xlink="http://www.w3.org/1999/xlink">
    <path d="M65.4004,17.7002 C65.4004,7.9002 59.5004,3.0002 51.5994,3.0002 L12.0004,3.0002 L12.0004,32.4002 L51.5004,32.4002 C59.0994,32.4002 65.4004,30.3002 65.4004,17.7002 M77.7994,18.4002 C77.7994,30.5002 67.7994,34.7002 59.0004,36.0992 C66.7004,37.8002 74.9004,41.7002 74.9004,50.2002 L74.9004,52.5992 C74.9004,57.5992 75.2994,62.5002 77.2994,67.5002 L65.4004,67.5002 C63.4004,62.8002 63.0004,59.0002 63.0004,54.8002 L63.0004,49.3002 C63.0004,38.0992 51.7994,36.8002 46.7004,36.5992 L11.9004,36.5992 L11.9004,67.5002 L0.0004,67.5002 L0.0004,0.0002 L53.0004,0.0002 C60.7004,0.0002 77.7994,2.7002 77.7994,18.4002" id="Fill-1"></path>
</svg>
