<?xml version="1.0" encoding="UTF-8"?>
<svg width="78px" height="68px" viewBox="0 0 78 68" version="1.1" xmlns="http://www.w3.org/2000/svg" xmlns:xlink="http://www.w3.org/1999/xlink">
    <g id="Page-1" stroke="none" stroke-width="1" fill="none" fill-rule="evenodd">
        <path d="M77.8,18.4 C77.8,30.5 67.8,34.7 59,36.1 C66.7,37.8 74.9,41.7 74.9,50.2 L74.9,52.6 C74.9,57.6 75.3,62.5 77.3,67.5 L65.4,67.5 C63.4,62.8 63,59 63,54.8 L63,49.3 C63,38.1 51.8,36.8 46.7,36.6 L11.9,36.6 L11.9,67.5 L0,67.5 L0,0 L53,0 C60.7,0 77.8,2.7 77.8,18.4 Z M65.4,17.7 C65.4,7.9 59.5,3 51.6,3 L12,3 L12,32.4 L51.5,32.4 C59.1,32.4 65.4,30.3 65.4,17.7 Z" id="r-wide" fill="#000000" fill-rule="nonzero"></path>
    </g>
</svg>
