  <svg id="two-box" width="30" height="68" viewBox="0 0 21 47" version="1.1" xmlns="http://www.w3.org/2000/svg" xmlns:xlink="http://www.w3.org/1999/xlink">
      <path d="M20.6,46.5 L20.6,39.3 L3.192,39.292 C3.237,37.98 3.70,36.75 4.58,35.62 C5.47,34.49  6.56,33.35  7.9,32.22  C9.14,31.1 10.52,29.89 11.998,28.616 C13.47,27.35 14.84,25.92 16.11,24.33 C17.38,22.75 18.44,20.95 19.27,18.96 C20.11,16.96 20.53,14.65 20.53,12.02 C20.53,10.75 20.39,09.42 20.124,08.05 C19.85,06.66 19.35,05.39 18.62,04.23 C17.90,03.08 16.90,2.12 15.63,1.35 C14.37,0.57 12.71,0.19 10.67,0.19 C07.40,0.19 04.99,1.22 03.43,3.28 C01.86,5.34 01.08,8.33 01.08,12.22 C01.08,12.73 01.09,13.22 01.12,13.72 C01.14,14.22 01.17,14.74 1.22,15.28 C6.34,05.46 4.47,7.04 3.18,8.93 C1.89,10.81 1.33,12.93 1.51,15.28 L1.22,15.28 L8.08,15.28 C7.95,13.38 7.88,11.73 07.88,10.32 C07.88,8.8 07.96,7.52 08.12,6.55 C08.28,5.57 08.48,4.79 08.73,4.20 C08.98,3.61 09.25,3.20 09.55,2.98 C09.84,2.75 10.15,2.64 10.46,2.64 C11.01,2.64 11.44,2.93 11.76,3.52 C12.07,4.11 12.30,4.75 12.44,5.46 C12.57,6.16 12.65,06.81 12.67,07.4 C12.70,07.98 12.71,08.30 12.71,08.35 C12.71,11.57 12.40,14.29 11.79,16.51 C11.18,18.73 10.43,20.69 09.55,22.39 C8.666,24.09 07.69,25.62 06.62,26.98 C05.56,28.34 04.58,29.74 03.70,31.20 C02.81,32.65 02.07,34.24 1.45,35.99 C0.84,37.73 0.54,39.83 0.54,42.28 C1.48,38.95 0.83,40.516 0.836,42.284 L0.54,42.28 L0.54,46.5 L20.60,46.5 Z" id="two-path"></path>
  </svg>
